<svg xmlns="http://www.w3.org/2000/svg" width="323" height="571" viewBox="0 0 323 571" version="1.1">
	<path d="M 168.500 24.607 C 145.365 28.735, 124.627 37.873, 101 54.348 C 68.273 77.168, 39.688 112.597, 29.670 142.755 C 24.272 159.007, 22.670 169.880, 23.300 186 C 23.884 200.945, 25.801 209.866, 31.352 223.482 C 40.356 245.568, 60.645 265.372, 84.495 275.356 C 101.475 282.464, 115.997 285, 139.724 285 L 154 285 154 294.826 C 154 304.145, 153.865 304.776, 151.378 307.076 C 148.181 310.031, 136.833 324.975, 127.515 338.500 C 117.084 353.639, 104.935 369.611, 97.264 378.271 C 88.611 388.038, 75.529 399.772, 66.750 405.641 C 59.847 410.256, 58.187 412.863, 59.505 417.016 C 60.432 419.935, 65.530 421.995, 69.213 420.939 C 77.111 418.674, 98.816 399.334, 113.476 381.500 C 121.996 371.135, 133.459 355.293, 145.857 336.750 C 149.810 330.837, 153.332 326, 153.683 326 C 154.574 326, 153.243 379.595, 151.946 396 C 150.861 409.719, 149.253 417.593, 143.879 435.500 C 134.472 466.850, 122.971 498.297, 109.594 529.250 L 107.973 533 98.552 533 C 93.370 533, 88.046 533.412, 86.721 533.916 C 83.541 535.125, 81.437 540.080, 82.924 542.858 C 85.111 546.945, 88 548, 96.973 547.991 C 110.087 547.978, 115.746 547.045, 118.203 544.493 C 120.650 541.951, 132.106 515.543, 140.332 493.483 C 145.953 478.408, 154.964 451.234, 157.023 443.149 C 157.633 440.756, 158.324 438.991, 158.560 439.226 C 158.795 439.462, 160.295 444.795, 161.893 451.077 C 167.278 472.249, 177.565 503.959, 186.711 527.576 C 194.289 547.147, 195.416 547.996, 213.795 547.998 C 225.518 548, 226.205 547.886, 228.545 545.545 C 231.489 542.602, 231.688 539.072, 229.090 535.861 C 227.330 533.685, 226.325 533.474, 216.278 533.167 L 205.375 532.833 204.096 529.667 C 200.937 521.847, 190.048 492.768, 187.666 485.791 C 183.476 473.518, 172.375 434.565, 169.511 422.085 L 166.891 410.669 167.945 386.373 C 168.525 373.011, 169 354.340, 169 344.884 L 169 327.690 172.800 333.595 C 174.889 336.843, 178.738 343.108, 181.352 347.517 C 194.392 369.515, 217.392 398.004, 231.887 410.112 C 242.544 419.016, 248.795 422.503, 252.223 421.458 C 257.171 419.949, 259.148 416.156, 257.384 411.558 C 257.045 410.675, 254.458 408.419, 251.634 406.543 C 238.643 397.915, 224.211 383.219, 209.194 363.324 C 205.800 358.827, 197.328 346.452, 190.368 335.824 C 183.407 325.196, 175.752 313.947, 173.356 310.826 L 169 305.152 169 294.144 L 169 283.136 176.750 281.429 C 195.824 277.228, 219.835 266.863, 237.223 255.325 C 251.090 246.123, 269.310 227.988, 278.267 214.470 C 293.962 190.784, 300.862 166.228, 299.614 138.500 C 298.091 104.686, 287.232 78.804, 264.723 55.338 C 244.207 33.951, 217.667 22.848, 187.640 23.090 C 181.513 23.139, 172.900 23.822, 168.500 24.607 M 177.500 39.604 C 142.434 44.796, 108.034 64.498, 78.215 96.468 C 58.353 117.762, 45.551 141.202, 40.544 165.440 C 38.546 175.114, 38.572 191.688, 40.601 201.643 C 42.636 211.623, 47.109 222.610, 52.684 231.319 C 70.592 259.295, 103.577 273.798, 144.425 271.658 C 165.934 270.532, 180.526 267.280, 200 259.274 C 230.373 246.788, 256.806 224.213, 270.857 198.759 C 279.383 183.313, 285 162.166, 285 145.509 C 285 129.517, 279.826 107.555, 272.748 93.500 C 263.033 74.210, 245.916 56.973, 227.089 47.520 C 218.520 43.218, 204.045 39.972, 191.500 39.539 C 185.450 39.331, 179.150 39.360, 177.500 39.604 M 214.678 149.971 C 213.303 151.605, 211.688 155.227, 211.089 158.020 C 208.712 169.104, 210.571 184.501, 214.740 188.258 C 222.491 195.243, 231 185.619, 231 169.868 C 231 161.037, 229.195 154.292, 225.797 150.421 C 221.902 145.985, 218.159 145.834, 214.678 149.971 M 164.622 153.463 C 159.855 158.607, 157.828 172.877, 160.425 183.013 C 164.030 197.087, 173.980 199.399, 178.667 187.252 C 180.796 181.732, 181.041 168.076, 179.131 161.295 C 176.492 151.924, 169.531 148.166, 164.622 153.463" stroke="none" fill="#171715" fill-rule="evenodd"/>
</svg>