<svg xmlns="http://www.w3.org/2000/svg" viewBox="0 0 1024 1024" role="img" aria-label="微信公众号">
  <circle cx="420" cy="360" r="265" fill="#10C35A"/>
  <circle cx="650" cy="610" r="290" fill="#10C35A"/>

  <path d="M240 560c20 120 95 225 200 285l-46 184a20 20 0 0 0 30 22l146-92c40 8 80 12 120 12 171 0 310-129 331-294-52 41-126 70-205 82-65 10-126 5-199-7-18-3-36 0-50 11l-176 111a20 20 0 0 1-30-22l46-184c-86-50-147-129-167-223z" fill="#000"/>

  <path d="M816 248c-58-102-167-171-293-171-183 0-332 149-332 332 0 52 12 102 34 146 50-91 121-169 211-229 131-88 263-109 380-87z" fill="#000"/>

  <circle cx="497" cy="553" r="18" fill="#10C35A"/>
  <circle cx="566" cy="553" r="18" fill="#10C35A"/>
</svg>
